HIERARCHY
ROOT Pelvis
{
	OFFSET 0.000000 0.000000 0.000000
	CHANNELS 6 Xposition Yposition Zposition Xrotation Yrotation Zrotation
	JOINT LeftUpLeg_virtual
	{
		OFFSET 0.000000 0.000000 0.000000
		CHANNELS 3 Xrotation Yrotation Zrotation
		JOINT LeftUpLeg
		{
			OFFSET 18.735201 -5.666702 -4.541200
			CHANNELS 3 Xrotation Yrotation Zrotation
			JOINT LeftLeg
			{
				OFFSET -0.021200 -31.938179 0.493100
				CHANNELS 3 Xrotation Yrotation Zrotation
				JOINT LeftFoot
				{
					OFFSET 0.021200 -31.938179 -4.336299
					CHANNELS 3 Xrotation Yrotation Zrotation
					JOINT LeftToeBase
					{
						OFFSET 0.943001 -26.722000 15.023500
						CHANNELS 3 Xrotation Yrotation Zrotation
						End Site
						{
							OFFSET 0 0 0
						}
					}
				}
			}
		}
	}
	JOINT RightUpLeg_virtual
	{
		OFFSET 0.000000 0.000000 0.000000
		CHANNELS 3 Xrotation Yrotation Zrotation
		JOINT RightUpLeg
		{
			OFFSET -18.735201 -5.666702 -4.541200
			CHANNELS 3 Xrotation Yrotation Zrotation
			JOINT RightLeg
			{
				OFFSET 0.018946 -31.938133 0.493100
				CHANNELS 3 Xrotation Yrotation Zrotation
				JOINT RightFoot
				{
					OFFSET -0.018946 -31.938126 -4.336299
					CHANNELS 3 Xrotation Yrotation Zrotation
					JOINT RightToeBase
					{
						OFFSET -0.943001 -26.722004 15.023500
						CHANNELS 3 Xrotation Yrotation Zrotation
						End Site
						{
							OFFSET 0 0 0
						}
					}
				}
			}
		}
	}
	JOINT Hips_virtual
	{
		OFFSET 0.000000 0.000000 0.000000
		CHANNELS 3 Xrotation Yrotation Zrotation
		JOINT Hips
		{
			OFFSET -0.000000 -0.000000 -0.000000
			CHANNELS 3 Xrotation Yrotation Zrotation
			JOINT Spine
			{
				OFFSET 0.000000 10.199997 -0.299500
				CHANNELS 3 Xrotation Yrotation Zrotation
				JOINT Spine1
				{
					OFFSET 0.000000 11.900002 -1.516600
					CHANNELS 3 Xrotation Yrotation Zrotation
					JOINT Spine2
					{
						OFFSET 0.000000 13.600006 -2.842500
						CHANNELS 3 Xrotation Yrotation Zrotation
						JOINT Neck_virtual
						{
							OFFSET 0.000000 0.000000 0.000000
							CHANNELS 3 Xrotation Yrotation Zrotation
							JOINT Neck
							{
								OFFSET 0.000000 9.624100 -2.890100
								CHANNELS 3 Xrotation Yrotation Zrotation
								JOINT Head
								{
									OFFSET 0.000000 14.068802 -1.351900
									CHANNELS 3 Xrotation Yrotation Zrotation
									End Site
									{
										OFFSET 0 0 0
									}
								}
							}
						}
						JOINT LeftShoulder_virtual
						{
							OFFSET 0.000000 0.000000 0.000000
							CHANNELS 3 Xrotation Yrotation Zrotation
							JOINT LeftShoulder
							{
								OFFSET 15.263000 10.923401 -0.547700
								CHANNELS 3 Xrotation Yrotation Zrotation
								JOINT LeftArm
								{
									OFFSET 25.438599 -2.830597 -13.032500
									CHANNELS 3 Xrotation Yrotation Zrotation
									JOINT LeftForeArm
									{
										OFFSET 29.960503 0.000000 0.000000
										CHANNELS 3 Xrotation Yrotation Zrotation
										JOINT LeftHand
										{
											OFFSET 27.849251 0.000000 0.000000
											CHANNELS 3 Xrotation Yrotation Zrotation
											End Site
											{
												OFFSET 0 0 0
											}
										}
									}
								}
							}
						}
						JOINT RightShoulder_virtual
						{
							OFFSET 0.000000 0.000000 0.000000
							CHANNELS 3 Xrotation Yrotation Zrotation
							JOINT RightShoulder
							{
								OFFSET -15.263000 10.923401 -0.547700
								CHANNELS 3 Xrotation Yrotation Zrotation
								JOINT RightArm
								{
									OFFSET -25.438599 -2.830597 -13.032500
									CHANNELS 3 Xrotation Yrotation Zrotation
									JOINT RightForeArm
									{
										OFFSET -29.960503 0.000000 0.000000
										CHANNELS 3 Xrotation Yrotation Zrotation
										JOINT RightHand
										{
											OFFSET -27.849251 0.000000 0.000000
											CHANNELS 3 Xrotation Yrotation Zrotation
											End Site
											{
												OFFSET 0 0 0
											}
										}
									}
								}
							}
						}
					}
				}
			}
		}
	}
}
MOTION
Frames: 4
Frame Time: 0.03333333
4.680029 192.333206 -24.548820 0.000000 0.000000 0.000000 -20.335027 10.378296 -2.564394 -71.292155 8.622580 19.121931 79.447681 -3.600266 -5.276041 14.911722 -1.868343 -16.337763 0.000000 0.000000 0.000000 -29.262344 6.706801 -9.865600 -68.103659 7.285752 -24.006061 91.684662 1.689058 6.024917 21.687686 -1.763222 21.862834 0.000000 0.000000 0.000000 3.500895 3.550207 0.522573 0.870437 1.919619 2.229121 18.475882 -1.472419 0.634642 12.682925 -0.706184 -0.832671 0.000000 0.000000 0.000000 6.217798 -0.183282 -2.166844 1.151720 0.224844 0.379440 0.000000 0.000000 0.000000 12.385926 0.304822 2.620264 3.931617 -10.977705 17.076323 -68.838704 -36.062245 1.780937 -12.465111 -69.007676 15.933817 0.000000 0.000000 0.000000 14.581148 1.876917 -1.126286 7.125906 8.495481 -7.133450 -60.753030 33.354300 -20.660214 -26.725096 79.227271 -1.664300 0.000000 0.000000 0.000000 
4.614894 191.962524 -24.913837 0.000000 0.000000 0.000000 -22.418049 8.406114 -2.550982 -73.203440 7.764813 19.090454 78.814823 -4.209712 -5.921143 14.591562 -2.109954 -17.773810 0.000000 0.000000 0.000000 -31.431045 4.246867 -9.239289 -70.078574 6.650945 -23.177970 88.878048 2.379804 5.705440 20.179891 -1.017160 22.216640 0.000000 0.000000 0.000000 3.488663 4.347884 0.507115 -0.269295 1.269994 2.778034 20.118887 -1.299834 0.988946 13.966036 -0.675954 -0.780789 0.000000 0.000000 0.000000 7.131290 0.035097 -2.189089 1.620732 0.326986 0.473476 0.000000 0.000000 0.000000 13.693351 0.518147 2.831077 4.575288 -11.175345 18.907758 -71.261693 -35.570047 2.576352 -14.416808 -67.964549 15.286727 0.000000 0.000000 0.000000 15.694675 2.023364 -1.028048 7.704630 8.609262 -7.527126 -61.361894 33.589839 -22.860500 -27.272262 78.114360 -2.116980 0.000000 0.000000 0.000000 
4.468766 191.458771 -25.128513 0.000000 0.000000 0.000000 -24.039693 6.538023 -2.804231 -74.552553 7.139257 18.816186 77.369091 -4.641791 -6.287980 13.955433 -2.338741 -18.705156 0.000000 0.000000 0.000000 -32.988885 1.753098 -8.276667 -71.495770 5.744775 -22.107990 85.085224 2.969796 5.291090 18.125977 -0.370828 22.295925 0.000000 0.000000 0.000000 3.510298 5.038332 0.540165 -1.471005 0.551614 3.461136 21.642313 -1.150708 1.272738 15.200197 -0.655461 -0.770490 0.000000 0.000000 0.000000 8.124997 0.238603 -2.223047 2.118763 0.427655 0.562813 0.000000 0.000000 0.000000 14.965733 0.776285 3.106959 5.192580 -11.089406 21.029971 -73.391202 -35.049423 3.582973 -16.136037 -66.764129 14.912379 0.000000 0.000000 0.000000 16.753103 2.136916 -0.950241 8.229306 8.599539 -8.015824 -61.833668 33.497888 -25.218373 -27.152357 76.330383 -3.233166 0.000000 0.000000 0.000000 
4.165461 190.900406 -25.587555 0.000000 0.000000 0.000000 -25.068319 4.811806 -3.202514 -75.254027 6.719383 18.396872 75.116071 -4.830985 -6.329184 12.979025 -2.512116 -19.006180 0.000000 0.000000 0.000000 -33.630376 -0.762057 -6.838395 -72.127918 4.479539 -20.746650 80.564308 3.355866 4.787411 15.741452 0.094751 21.984292 0.000000 0.000000 0.000000 3.652640 5.741793 0.521288 -2.470132 0.039722 3.670795 22.927734 -1.035642 1.477175 16.307637 -0.655497 -0.807647 0.000000 0.000000 0.000000 9.046580 0.377257 -2.310677 2.570115 0.496912 0.622335 0.000000 0.000000 0.000000 16.092571 1.008835 3.369280 5.688269 -10.966563 23.099450 -75.272585 -34.361603 4.832857 -17.764501 -65.151358 14.680187 0.000000 0.000000 0.000000 17.737960 2.218450 -0.901297 8.680440 8.485013 -8.675890 -62.320927 33.111077 -27.502059 -27.092505 74.111999 -4.254039 0.000000 0.000000 0.000000 
